# xmcd
#
# Track frame offsets: 
#        150
#        9867
#        21824
#        34366
#        45280
#        66550
#        79298
#        94904
#        106089
#        120865
#        133513
#        147462
#        157281
#        172390
#        183455
#        198630
#        213688
#        233869
#        246658
#        260507
#
# Disc length: 3696 seconds
#
# Revision: 0
# Processed by: cddbd v1.5.2PL0 Copyright (c) Steve Scherf et al.
# Submitted via: ExactAudioCopy v1.0b1
#
DISCID=2d0e6e14
DTITLE=Jim Lauderdale - I'm A Song
DYEAR=2014
DGENRE=Country
TTITLE0=Let's Have A Good Thing Together
TTITLE1=Past It
TTITLE2=You've Got A Way All Yours
TTITLE3=I'm A Song
TTITLE4=The Feeling's Hanging On
TTITLE5=I Lost You
TTITLE6=Doin' Time In Bakersfield
TTITLE7=A Day With No Tomorrow
TTITLE8=End Of The World Rag
TTITLE9=Neon Hearts
TTITLE10=I Wish You Loved Me
TTITLE11=Makin' Honey
TTITLE12=Let Him Come To You
TTITLE13=Today I've Got The Yesterdays
TTITLE14=There's No Shadows In The Shade
TTITLE15=Hope And Find
TTITLE16=The Day The Devil Changed
TTITLE17=The King Of Broken Hearts
TTITLE18=The World Is Waiting Below
TTITLE19=We Will Rock Again
EXTD=
EXTT0=
EXTT1=
EXTT2=
EXTT3=
EXTT4=
EXTT5=
EXTT6=
EXTT7=
EXTT8=
EXTT9=
EXTT10=
EXTT11=
EXTT12=
EXTT13=
EXTT14=
EXTT15=
EXTT16=
EXTT17=
EXTT18=
EXTT19=
PLAYORDER=
